{"title":"MILFSoup - Lily Paige [HDTV] - hot MILF with hairy cunt","uid":4981780,"size":383177635,"categoryP":"porn","categoryS":"hd___movies","magnet":"?xt=urn:btih:7a8b62c324790e50d8302e491adf5e0876f98b45&amp;dn=MILFSoup+-+Lily+Paige+%5BHDTV%5D+-+hot+MILF+with+hairy+cunt&amp;tr=udp%3A%2F%2Ftracker.openbittorrent.com%3A80&amp;tr=udp%3A%2F%2Fopen.demonii.com%3A1337&amp;tr=udp%3A%2F%2Ftracker.coppersurfer.tk%3A6969&amp;tr=udp%3A%2F%2Fexodus.desync.com%3A6969","seeders":0,"leechers":2,"uploader":"pure_screens","files":1,"time":1246362504,"description":"MILFSoup - Lily Paige\n\n\n\n\nscreens:\n &lt;a href=&quot;\nhttp://www.jam-hot.com/pictures/1684/lily-paige.html&quot; rel=&quot;nofollow&quot; target=&quot;_NEW&quot;&gt;\nhttp://www.jam-hot.com/pictures/1684/lily-paige.html&lt;/a&gt;\n\n\n\n\n\n1-800-FUN-MILF\n\nReleased: June 28\n\nA night alone can be lonely. What can a man do when he's horny and none of his ex girlfriends like him and his only booty call consists of a blow up doll? 1-800-FUN-MILF!!! Imagine Poltergeist meets The Ring meets BANG BROS!! on this weeks MilF Soup Richie Deville was alone at home when he saw a commercial for 1800-FUN-MILF the commercial served its purpose and he was dialing the number before it was over. as Richie was talking to the sexyLily Paige he began to doze off, then it happend! Lily came out of the tv and too richi over to her world. a world filled with sex hott MILFS that just want to fuck no questions asked. Richie was in Heaven when his phone rang, and he realized it was just a dream...\n\n\n\n\n\nFormat : MPEG-4\nFormat profile : Base Media\nCodec ID : isom\nFile size : 365 MiB\nDuration : 16mn 35s\nOveral bit rate : 3080 Kbps\nVideo #1\nFormat : AVC\nFormat/Info : Advanced Video Codec\nFormat profile : &lt;a class=&quot;__cf_email__&quot; href=&quot;/cdn-cgi/l/email-protection&quot; data-cfemail=&quot;347c5d535c7478071a06&quot;&gt;[email&amp;#160;protected]&lt;/a&gt;&lt;script cf-hash='f9e31' type=&quot;text/javascript&quot;&gt;\n/* &lt;![CDATA[ */!function(){try{var t=&quot;currentScript&quot;in document?document.currentScript:function(){for(var t=document.getElementsByTagName(&quot;script&quot;),e=t.length;e--;)if(t[e].getAttribute(&quot;cf-hash&quot;))return t[e]}();if(t&amp;&amp;t.previousSibling){var e,r,n,i,c=t.previousSibling,a=c.getAttribute(&quot;data-cfemail&quot;);if(a){for(e=&quot;&quot;,r=parseInt(a.substr(0,2),16),n=2;a.length-n;n+=2)i=parseInt(a.substr(n,2),16)^r,e+=String.fromCharCode(i);e=document.createTextNode(e),c.parentNode.replaceChild(e,c)}}}catch(u){}}();/* ]]&gt; */&lt;/script&gt;\nFormat settings, CABAC : Yes\nFormat settings, ReFrames : 5 frames\nCodec ID : avc1\nDuration : 16mn 35s\nBit rate mode : Variable\nBit rate : 3001 Kbps\nWidth : 1280 pixels\nHeight : 768 pixels\nDisplay aspect ratio : 1.667\nFrame rate mode : Constant\nFrame rate : 29.000 fps\nColorimetry : 4:2:0\nScan type : Progressive\nBits/(Pixel*Frame) : 0.105\nStream size : 356 MiB\nLanguage : English\nAudio #2\nFormat : AAC\nFormat/Info : Advanced Audio Codec\nFormat version : Version 4\nFormat profile : LC\nFormat settings, SBR : No\nCodec ID : 40\nDuration : 16mn 35s\nBit rate mode : Variable\nBit rate : 72.0 Kbps\nChannel(s) : 2 channels\nChannel positions : L R\nSampling rate : 44.1 KHz\nResolution : 16 bits\nStream size : 8.57 MiB\nLanguage : English\n\n\n2,500+ torrents: \n(ALWAYS with honest screens &amp; detailed info)\n &lt;a href=&quot;\nhttp://thepiratebay.se/user/pure_screens&quot; rel=&quot;nofollow&quot; target=&quot;_NEW&quot;&gt;\nhttp://thepiratebay.se/user/pure_screens&lt;/a&gt;\n\n\n\n\n\n","torrent":{"xt":"urn:btih:7a8b62c324790e50d8302e491adf5e0876f98b45","amp;dn":"MILFSoup+-+Lily+Paige+%5BHDTV%5D+-+hot+MILF+with+hairy+cunt","amp;tr":["udp%3A%2F%2Ftracker.openbittorrent.com%3A80","udp%3A%2F%2Fopen.demonii.com%3A1337","udp%3A%2F%2Ftracker.coppersurfer.tk%3A6969","udp%3A%2F%2Fexodus.desync.com%3A6969"],"infoHash":"7a8b62c324790e50d8302e491adf5e0876f98b45","infoHashBuffer":{"type":"Buffer","data":[122,139,98,195,36,121,14,80,216,48,46,73,26,223,94,8,118,249,139,69]},"announce":[],"urlList":[]}}